<?xml version="1.0" encoding="UTF-8"?>
<svg width="100" height="100" version="1.1" viewBox="0 0 26.458 26.458" xmlns="http://www.w3.org/2000/svg" xmlns:xlink="http://www.w3.org/1999/xlink"><defs><linearGradient id="linearGradient1393" x1="-11.812" x2="71.132" y1="993.98" y2="1137.6" gradientTransform="matrix(.26458 0 0 .26458 28.348 -7.9375)" gradientUnits="userSpaceOnUse"><stop stop-color="#f60" offset="0"/><stop stop-color="#f60" stop-opacity="0" offset="1"/></linearGradient></defs><g transform="matrix(.49723 0 0 .49723 -4.813 -121.59)"><path d="m32.378 244.54c13.947 12.587-4.3332 19.502-7.1556 10.514-9.869 5.2888-11.953 14.322-11.953 19.84 0 4.072 0.90598 7.5622 2.5011 10.475 0.87393 1.5958 1.9561 3.0165 3.2091 4.2654v5.578c0 1.4066 1.1322 2.5394 2.5389 2.5394h7.0187v-3.2835c0-0.94231 0.75838-1.7007 1.7007-1.7007h0.37827c0.9423 0 1.7007 0.75836 1.7007 1.7007v3.2835h7.9375v-3.2835c0-0.94231 0.75838-1.7007 1.7007-1.7007h0.37827c0.94229 0 1.7007 0.75836 1.7007 1.7007v3.2835h7.0177c1.4066 0 2.5394-1.1328 2.5394-2.5394v-5.0689c1.2329-1.226 2.2961-2.6303 3.1569-4.2178 1.6382-3.0212 2.5538-6.6964 2.5538-11.031 0-5.7545-1.6237-11.226-4.6343-15.427-8.2637-10.564-22.289-14.927-22.289-14.927zm-5.4663 28.792a4.786 4.786 0 0 1 4.7858 4.7858 4.786 4.786 0 0 1-4.7858 4.7863 4.786 4.786 0 0 1-4.7858-4.7863 4.786 4.786 0 0 1 4.7858-4.7858zm18.748 0a4.786 4.786 0 0 1 4.7858 4.7858 4.786 4.786 0 0 1-4.7858 4.7863 4.786 4.786 0 0 1-4.7863-4.7863 4.786 4.786 0 0 1 4.7863-4.7858z" fill="#d40000"/><path d="m32.378 244.54c13.947 12.587-4.3332 19.502-7.1556 10.514-9.869 5.2888-11.953 14.322-11.953 19.84 0 4.072 0.90598 7.5622 2.5011 10.475 0.87393 1.5958 1.9561 3.0165 3.2091 4.2654v5.578c0 1.4066 1.1322 2.5394 2.5389 2.5394h7.0187v-3.2835c0-0.94231 0.75838-1.7007 1.7007-1.7007h0.37827c0.9423 0 1.7007 0.75836 1.7007 1.7007v3.2835h7.9375v-3.2835c0-0.94231 0.75838-1.7007 1.7007-1.7007h0.37827c0.94229 0 1.7007 0.75836 1.7007 1.7007v3.2835h7.0177c1.4066 0 2.5394-1.1328 2.5394-2.5394v-5.0689c1.2329-1.226 2.2961-2.6303 3.1569-4.2178 1.6382-3.0212 2.5539-6.6964 2.5539-11.031 0-5.7545-1.6237-11.226-4.6343-15.427-8.2637-10.564-22.289-14.927-22.289-14.927zm-5.4663 28.792a4.786 4.786 0 0 1 4.7858 4.7858 4.786 4.786 0 0 1-4.7858 4.7863 4.786 4.786 0 0 1-4.7858-4.7863 4.786 4.786 0 0 1 4.7858-4.7858zm18.748 0a4.786 4.786 0 0 1 4.7858 4.7858 4.786 4.786 0 0 1-4.7858 4.7863 4.786 4.786 0 0 1-4.7863-4.7863 4.786 4.786 0 0 1 4.7863-4.7858z" fill="url(#linearGradient1393)"/></g></svg>
